<?xml version="1.0" encoding="utf-8"?>
<!-- Generator: Adobe Illustrator 26.5.0, SVG Export Plug-In . SVG Version: 6.00 Build 0)  -->
<svg version="1.1" id="Layer_1" xmlns="http://www.w3.org/2000/svg" xmlns:xlink="http://www.w3.org/1999/xlink" x="0px" y="0px"
	 viewBox="0 0 60 60" style="enable-background:new 0 0 60 60;" xml:space="preserve">
<style type="text/css">
	.st0{fill:#202124;}
</style>
<g>
	<path d="M31.99,5c-2.71,12.35,14.97,20.14,14.97,32.57c0,9.28-7.18,17.43-16.9,17.43c9.49-0.93,12.43-8.58,12.43-13.66
		c0-11.91-15.76-13.92-15.76-25.22C26.74,9.73,30.85,6.4,31.99,5z"/>
	<path d="M31.99,5c-0.01,0.01-0.03,0.03-0.04,0.05C31.97,5.03,31.98,5.02,31.99,5C31.99,5,31.99,5,31.99,5z"/>
	<path d="M29.72,51.23c-12.59,0-14.51-16.82-7.99-26.41c-0.83-1.92-1.34-4.06-1.28-6.52
		c-4.03,5.31-4.39,13.15-4.39,13.15c-0.7-1.23-1.23-3.68-1.23-3.68c-6.22,16.64,4.99,26.01,14.1,26.01c8.93,0,11.91-8.23,12-11.12
		C40.25,46.42,36.59,51.23,29.72,51.23z"/>
	<path d="M33.31,42.04c0,5.69-11.12,4.99-12.77-3.33c1.18,7.71,6.07,9.72,9.28,9.72c2.28,0,8.76-1.31,8.76-7.62
		c0-9.45-17.72-14.58-15.34-28.98C17.11,27.85,33.31,31.75,33.31,42.04z"/>
</g>
</svg>
